<svg width="24" height="24" viewBox="0 0 24 24" fill="none" xmlns="http://www.w3.org/2000/svg">
    <mask id="mask0_185_425" style="mask-type:alpha" maskUnits="userSpaceOnUse" x="0" y="0"
          width="24" height="24">
        <rect width="24" height="24" fill="#D9D9D9"/>
    </mask>
    <g mask="url(#mask0_185_425)">
        <path d="M6.51925 20.5C6.30675 20.5 6.12867 20.4281 5.985 20.2843C5.84117 20.1406 5.76925 19.9625 5.76925 19.75V17.777C5.45642 17.5398 5.16667 17.2043 4.9 16.7703C4.63333 16.3363 4.5 15.8488 4.5 15.3077V6C4.5 4.78967 5.10158 3.90375 6.30475 3.34225C7.50775 2.78075 9.40608 2.5 11.9997 2.5C14.6871 2.5 16.6089 2.76983 17.7653 3.3095C18.9218 3.849 19.5 4.74583 19.5 6V15.3077C19.5 15.8488 19.3667 16.3363 19.1 16.7703C18.8333 17.2043 18.5436 17.5398 18.2308 17.777V19.75C18.2308 19.9625 18.1588 20.1406 18.015 20.2843C17.8713 20.4281 17.6932 20.5 17.4808 20.5H16.8652C16.6529 20.5 16.4748 20.4281 16.331 20.2843C16.1873 20.1406 16.1155 19.9625 16.1155 19.75V18.5H7.8845V19.75C7.8845 19.9625 7.81267 20.1406 7.669 20.2843C7.52517 20.4281 7.34708 20.5 7.13475 20.5H6.51925ZM6 10.5H18V6.76925H6V10.5ZM8.50225 15.8077C8.86608 15.8077 9.17458 15.6803 9.42775 15.4255C9.68108 15.1708 9.80775 14.8616 9.80775 14.4978C9.80775 14.1339 9.68033 13.8254 9.4255 13.5723C9.17083 13.3189 8.86158 13.1923 8.49775 13.1923C8.13392 13.1923 7.82542 13.3197 7.57225 13.5745C7.31892 13.8292 7.19225 14.1384 7.19225 14.5022C7.19225 14.8661 7.31967 15.1746 7.5745 15.4277C7.82917 15.6811 8.13842 15.8077 8.50225 15.8077ZM15.5023 15.8077C15.8661 15.8077 16.1746 15.6803 16.4277 15.4255C16.6811 15.1708 16.8077 14.8616 16.8077 14.4978C16.8077 14.1339 16.6803 13.8254 16.4255 13.5723C16.1708 13.3189 15.8616 13.1923 15.4977 13.1923C15.1339 13.1923 14.8254 13.3197 14.5723 13.5745C14.3189 13.8292 14.1923 14.1384 14.1923 14.5022C14.1923 14.8661 14.3197 15.1746 14.5745 15.4277C14.8292 15.6811 15.1384 15.8077 15.5023 15.8077ZM6.277 5.26925H17.7848C17.5731 4.87058 17.0372 4.55933 16.177 4.3355C15.3167 4.11183 13.9346 4 12.0308 4C10.1578 4 8.79108 4.117 7.93075 4.351C7.07042 4.585 6.51917 4.89108 6.277 5.26925ZM8 17H16C16.55 17 17.0208 16.8042 17.4125 16.4125C17.8042 16.0208 18 15.55 18 15V12H6V15C6 15.55 6.19583 16.0208 6.5875 16.4125C6.97917 16.8042 7.45 17 8 17Z"/>
    </g>
</svg>
