<svg width="24" height="24" viewBox="0 0 24 24" fill="none" xmlns="http://www.w3.org/2000/svg">
<mask id="mask0_262_301" style="mask-type:alpha" maskUnits="userSpaceOnUse" x="0" y="0" width="24" height="24">
<rect width="24" height="24" fill="#D9D9D9"/>
</mask>
<g mask="url(#mask0_262_301)">
<path d="M8.96842 15.9189L12 12.8874L15.0316 15.9189L15.9189 15.0316L12.8874 12L15.9189 8.96842L15.0316 8.08105L12 11.1126L8.96842 8.08105L8.08105 8.96842L11.1126 12L8.08105 15.0316L8.96842 15.9189ZM12.0015 20C10.8949 20 9.85488 19.79 8.88126 19.3701C7.90765 18.9502 7.06077 18.3803 6.34063 17.6604C5.62049 16.9406 5.05032 16.094 4.63011 15.1208C4.21003 14.1476 4 13.1079 4 12.0015C4 10.8949 4.20996 9.85488 4.62989 8.88126C5.04982 7.90765 5.61972 7.06077 6.33958 6.34063C7.05944 5.62049 7.90597 5.05032 8.87916 4.63011C9.85235 4.21003 10.8921 4 11.9985 4C13.1051 4 14.1451 4.20996 15.1187 4.62989C16.0924 5.04982 16.9392 5.61972 17.6594 6.33958C18.3795 7.05944 18.9497 7.90597 19.3699 8.87916C19.79 9.85235 20 10.8921 20 11.9985C20 13.1051 19.79 14.1451 19.3701 15.1187C18.9502 16.0924 18.3803 16.9392 17.6604 17.6594C16.9406 18.3795 16.094 18.9497 15.1208 19.3699C14.1476 19.79 13.1079 20 12.0015 20Z" fill="#A2A8AF"/>
</g>
</svg>
