<svg width="16" height="16" viewBox="0 0 16 16" fill="none" xmlns="http://www.w3.org/2000/svg">
<mask id="mask0_1433_2138" style="mask-type:alpha" maskUnits="userSpaceOnUse" x="0" y="0" width="16" height="16">
<rect width="16" height="16" fill="#D9D9D9"/>
</mask>
<g mask="url(#mask0_1433_2138)">
<path d="M8.00094 7.91016C8.33261 7.91016 8.61616 7.79205 8.85161 7.55582C9.08716 7.3196 9.20494 7.03566 9.20494 6.70399C9.20494 6.37232 9.08683 6.08871 8.85061 5.85316C8.61438 5.61771 8.33038 5.49999 7.99861 5.49999C7.66694 5.49999 7.38338 5.6181 7.14794 5.85432C6.91238 6.09055 6.79461 6.37455 6.79461 6.70632C6.79461 7.03799 6.91272 7.32155 7.14894 7.55699C7.38516 7.79243 7.66916 7.91016 8.00094 7.91016ZM7.99977 14.3397C6.322 12.8859 5.06388 11.5329 4.22544 10.2808C3.387 9.0286 2.96777 7.87899 2.96777 6.83199C2.96777 5.29355 3.46538 4.04805 4.46061 3.09549C5.45594 2.14293 6.63566 1.66666 7.99977 1.66666C9.36388 1.66666 10.5436 2.14293 11.5389 3.09549C12.5342 4.04805 13.0318 5.29355 13.0318 6.83199C13.0318 7.87899 12.6126 9.0286 11.7741 10.2808C10.9357 11.5329 9.67755 12.8859 7.99977 14.3397Z" fill="#25282B"/>
</g>
</svg>
