<svg width="16" height="16" viewBox="0 0 16 16" fill="none" xmlns="http://www.w3.org/2000/svg">
<mask id="mask0_1048_2772" style="mask-type:alpha" maskUnits="userSpaceOnUse" x="0" y="0" width="16" height="16">
<rect width="16" height="16" transform="matrix(-1 0 0 1 16 0)" fill="#D9D9D9"/>
</mask>
<g mask="url(#mask0_1048_2772)">
<path d="M9.87701 8.00001L4.85517 13.0218C4.72273 13.1543 4.65817 13.3102 4.66151 13.4897C4.66495 13.6692 4.7329 13.8252 4.86534 13.9577C4.9979 14.0901 5.1539 14.1563 5.33334 14.1563C5.51278 14.1563 5.66879 14.0901 5.80134 13.9577L10.9153 8.85384C11.0359 8.73329 11.1252 8.59823 11.1833 8.44868C11.2415 8.29912 11.2705 8.14957 11.2705 8.00001C11.2705 7.85045 11.2415 7.7009 11.1833 7.55134C11.1252 7.40179 11.0359 7.26673 10.9153 7.14618L5.80134 2.03201C5.66879 1.89957 5.51106 1.83507 5.32817 1.83851C5.14528 1.84195 4.98762 1.9099 4.85517 2.04234C4.72273 2.17479 4.65651 2.33079 4.65651 2.51034C4.65651 2.68979 4.72273 2.84573 4.85517 2.97818L9.87701 8.00001Z" fill="#1C1B1F"/>
</g>
</svg>
