<svg width="16" height="16" viewBox="0 0 16 16" fill="none" xmlns="http://www.w3.org/2000/svg">
<path d="M11.6682 1.42334C11.7692 1.48196 11.853 1.56609 11.9113 1.66729C11.9695 1.76849 12.0002 1.88323 12.0002 2.00001V4.66667C12.3753 4.66668 12.7462 4.74584 13.0886 4.89897C13.4311 5.0521 13.7374 5.27576 13.9875 5.55534C14.4249 6.04426 14.6668 6.67729 14.6668 7.33334C14.6668 8.01601 14.4095 8.64001 13.9875 9.11134C13.7374 9.39091 13.4311 9.61457 13.0886 9.7677C12.7462 9.92084 12.3753 9.99999 12.0002 10V12.6667C12.0001 12.7834 11.9694 12.8981 11.9111 12.9993C11.8529 13.1004 11.769 13.1845 11.6681 13.2431C11.5671 13.3017 11.4525 13.3327 11.3357 13.3331C11.219 13.3335 11.1042 13.3032 11.0028 13.2453L6.66683 10.768V14C6.66683 14.1768 6.59659 14.3464 6.47157 14.4714C6.34654 14.5964 6.17697 14.6667 6.00016 14.6667H3.3335C3.15668 14.6667 2.98712 14.5964 2.86209 14.4714C2.73707 14.3464 2.66683 14.1768 2.66683 14V10.6667C2.31321 10.6667 1.97407 10.5262 1.72402 10.2761C1.47397 10.0261 1.3335 9.68696 1.3335 9.33334V5.33334C1.3335 4.97972 1.47397 4.64058 1.72402 4.39053C1.97407 4.14048 2.31321 4.00001 2.66683 4.00001H6.4895L11.0028 1.42134C11.1042 1.36338 11.219 1.33306 11.3358 1.33341C11.4525 1.33376 11.5672 1.36477 11.6682 1.42334ZM6.66683 9.33334C6.78283 9.3334 6.89681 9.36374 6.9975 9.42134L10.6668 11.518V3.14867L6.9975 5.24534C6.89681 5.30294 6.78283 5.33327 6.66683 5.33334H2.66683V9.33334H6.66683ZM4.00016 10.6667V13.3333H5.3335V10.6667H4.00016ZM12.0002 8.66667C12.3948 8.66667 12.7488 8.49601 12.9942 8.22201C13.2055 7.98601 13.3335 7.67534 13.3335 7.33334C13.3335 6.99134 13.2055 6.68067 12.9942 6.44467C12.8691 6.30478 12.7159 6.19287 12.5446 6.11624C12.3733 6.03962 12.1878 6.00001 12.0002 6.00001V8.66667Z" fill="black"/>
</svg>
