<svg width="16" height="16" viewBox="0 0 16 16" fill="none" xmlns="http://www.w3.org/2000/svg">
<mask id="mask0_1433_2124" style="mask-type:alpha" maskUnits="userSpaceOnUse" x="0" y="0" width="16" height="16">
<rect width="16" height="16" fill="#D9D9D9"/>
</mask>
<g mask="url(#mask0_1433_2124)">
<path d="M4.12817 13.4872V13L5.12817 12.3333C4.5325 12.3333 4.02889 12.1275 3.61733 11.716C3.20578 11.3044 3 10.8008 3 10.2052V3.99999C3 3.18466 3.39572 2.59193 4.18717 2.22182C4.97861 1.85171 6.24956 1.66666 8 1.66666C9.79167 1.66666 11.0729 1.84655 11.8437 2.20632C12.6146 2.56599 13 3.16388 13 3.99999V10.2052C13 10.8008 12.7942 11.3044 12.3827 11.716C11.9711 12.1275 11.4675 12.3333 10.8718 12.3333L11.8718 13V13.4872H4.12817ZM4 6.99999H7.5V4.51282H4V6.99999ZM8.5 6.99999H12V4.51282H8.5V6.99999ZM5.66817 10.5385C5.91072 10.5385 6.11639 10.4535 6.28517 10.2837C6.45406 10.1139 6.5385 9.90771 6.5385 9.66516C6.5385 9.4226 6.45356 9.21693 6.28367 9.04816C6.11389 8.87927 5.90772 8.79482 5.66517 8.79482C5.42261 8.79482 5.21694 8.87977 5.04817 9.04966C4.87928 9.21943 4.79483 9.4256 4.79483 9.66816C4.79483 9.91071 4.87978 10.1164 5.04967 10.2852C5.21944 10.454 5.42561 10.5385 5.66817 10.5385ZM10.3348 10.5385C10.5774 10.5385 10.7831 10.4535 10.9518 10.2837C11.1207 10.1139 11.2052 9.90771 11.2052 9.66516C11.2052 9.4226 11.1202 9.21693 10.9503 9.04816C10.7806 8.87927 10.5744 8.79482 10.3318 8.79482C10.0893 8.79482 9.88361 8.87977 9.71483 9.04966C9.54594 9.21943 9.4615 9.4256 9.4615 9.66816C9.4615 9.91071 9.54644 10.1164 9.71633 10.2852C9.88611 10.454 10.0923 10.5385 10.3348 10.5385Z" fill="#25282B"/>
</g>
</svg>
