<svg width="24" height="24" viewBox="0 0 24 24" fill="none" xmlns="http://www.w3.org/2000/svg">
    <mask id="mask0_185_431" style="mask-type:alpha" maskUnits="userSpaceOnUse" x="0" y="0"
          width="24" height="24">
        <rect width="24" height="24" fill="#D9D9D9"/>
    </mask>
    <g mask="url(#mask0_185_431)">
        <path d="M7.32713 22.7505L10.1944 8.47755L7.81738 9.42755V12.7408H6.31738V8.4448L11.0596 6.4293C11.293 6.3293 11.526 6.26938 11.7589 6.24955C11.9915 6.22971 12.2149 6.25188 12.4289 6.31605C12.643 6.38005 12.8415 6.47905 13.0241 6.61305C13.2068 6.74705 13.3616 6.92113 13.4886 7.1353L14.3346 8.48505C14.8321 9.29405 15.4581 9.94438 16.2126 10.436C16.9671 10.9277 17.813 11.1928 18.7501 11.2313V12.7313C17.6091 12.68 16.5915 12.3902 15.6971 11.862C14.803 11.3339 14.034 10.637 13.3904 9.77155L12.6214 13.5968L14.7501 15.7313V22.7505H13.2501V16.5678L10.8039 14.4775L8.88863 22.7505H7.32713ZM13.5001 5.3468C12.9886 5.3468 12.5531 5.16696 12.1934 4.8073C11.8337 4.44763 11.6539 4.01205 11.6539 3.50055C11.6539 2.98905 11.8337 2.55346 12.1934 2.1938C12.5531 1.83413 12.9886 1.6543 13.5001 1.6543C14.0116 1.6543 14.4472 1.83413 14.8069 2.1938C15.1666 2.55346 15.3464 2.98905 15.3464 3.50055C15.3464 4.01205 15.1666 4.44763 14.8069 4.8073C14.4472 5.16696 14.0116 5.3468 13.5001 5.3468Z"/>
    </g>
</svg>
